<svg xmlns="http://www.w3.org/2000/svg" viewBox="0 0 64 64"><defs><linearGradient id="c" x1="0" y1=".2" x2="1" y2=".8"><stop offset="0" stop-color="#5a6579"/><stop offset=".4" stop-color="#9aa5b8"/><stop offset=".75" stop-color="#e2e8f0"/><stop offset="1" stop-color="#fff"/></linearGradient><linearGradient id="b" x1="0" y1="0" x2=".3" y2="1"><stop offset="0" stop-color="#9fe0ff"/><stop offset=".35" stop-color="#00b4ff"/><stop offset=".7" stop-color="#0066ff"/><stop offset="1" stop-color="#0a3d9e"/></linearGradient><radialGradient id="g" cx=".3" cy=".25" r=".9"><stop offset="0" stop-color="#0d2550"/><stop offset="1" stop-color="#05070d"/></radialGradient></defs><rect width="64" height="64" rx="14" fill="url(#g)"/><g transform="translate(4 3) scale(.86)"><path d="M14 37V25C14 13 21 6 33 6h29l-9.5 11.5H35c-6 0-9.5 3.5-9.5 9.5v3.5Z" fill="url(#c)"/><path d="M14 62V46.5c0-9 5-13.5 14-13.5h27l-9.5 10.5H33c-4 0-7.5 2-7.5 6v1Z" fill="url(#c)"/><path d="M14 37V25C14 13 21 6 33 6h9C30 8 22 14.5 20.5 26v7.4Z" fill="url(#b)"/></g></svg>
